<svg width="291" height="236" viewBox="0 0 291 236" fill="none" xmlns="http://www.w3.org/2000/svg">
<path opacity="0.13" d="M144.997 70.0644L138.857 12.1472M171.692 57.4783L184.416 29.9467M152.539 199.478L161.575 274.712M124.833 219.562L114.671 249.645M221.395 115.67L279.246 98.3651M69.9182 100.88L12.1095 63.9951M41.4098 109.672L12.1473 106.814M74.5171 170.222L16.6931 200.256M219.767 172.993L259.652 194.07M148.029 108.507L196.554 82.0042L176.834 128.814L228.919 146.083L173.59 152.864L182.456 186.532L144.658 165.66L100.083 203.794L111.491 154.299L37.7937 136.481L104.311 121.732L98.1486 74.8952L148.029 108.507Z" stroke="#D9D9D9" stroke-width="23" stroke-linecap="round" stroke-linejoin="round"/>
</svg>
